<svg xmlns="http://www.w3.org/2000/svg" viewBox="0 0 100 100"><defs><radialGradient id="bg" cx="50%" cy="50%" r="50%"><stop offset="0%" stop-color="#c0392b"/><stop offset="100%" stop-color="#7b1a10"/></radialGradient><radialGradient id="flame" cx="50%" cy="90%" r="70%"><stop offset="0%" stop-color="#f9ca24"/><stop offset="50%" stop-color="#e55039"/><stop offset="100%" stop-color="#c0392b" stop-opacity="0"/></radialGradient></defs><circle cx="50" cy="50" r="48" fill="url(#bg)"/><path d="M50 78 C37 67 28 55 34 41 C36 34 41 28 44 23 C45 31 43 35 46 38 C47 31 50 25 55 20 C58 29 54 35 57 40 C60 34 62 29 67 26 C69 37 63 46 65 53 C67 49 70 44 72 41 C73 52 66 63 61 70 C58 73 54 76 50 78Z" fill="url(#flame)"/><rect x="47" y="18" width="6" height="58" rx="3" fill="#f5f0e8" opacity="0.9"/><ellipse cx="50" cy="32" rx="11" ry="7.5" fill="#e8c49a" stroke="#b8763a" stroke-width="1.5"/><ellipse cx="50" cy="50" rx="12" ry="8" fill="#c47840" stroke="#8b4513" stroke-width="1.5"/><ellipse cx="50" cy="68" rx="11" ry="7.5" fill="#e8c49a" stroke="#b8763a" stroke-width="1.5"/><circle cx="50" cy="50" r="48" fill="none" stroke="#e8a030" stroke-width="2" opacity="0.35"/></svg>
