<svg xmlns="http://www.w3.org/2000/svg" viewBox="0 0 100 100">
  <defs>
    <linearGradient id="bg" x1="0%" y1="0%" x2="100%" y2="100%">
      <stop offset="0%" stop-color="#1C0A00"/>
      <stop offset="100%" stop-color="#3D1200"/>
    </linearGradient>
    <linearGradient id="goldText" x1="0%" y1="0%" x2="0%" y2="100%">
      <stop offset="0%" stop-color="#F5D97A"/>
      <stop offset="100%" stop-color="#C4881E"/>
    </linearGradient>
    <linearGradient id="flameGrad" x1="50%" y1="100%" x2="50%" y2="0%">
      <stop offset="0%" stop-color="#E8400A"/>
      <stop offset="100%" stop-color="#FFD040"/>
    </linearGradient>
  </defs>

  <!-- Arka plan -->
  <circle cx="50" cy="50" r="50" fill="url(#bg)"/>

  <!-- Dış altın halka -->
  <circle cx="50" cy="50" r="47" fill="none" stroke="#C4881E" stroke-width="1.8"/>
  <circle cx="50" cy="50" r="44" fill="none" stroke="#C4881E" stroke-width="0.5" opacity="0.4"/>

  <!-- Stilize alev - U'nun üstünde -->
  <path d="M50 18 C50 18 47 22 47 25 C46 22 45 20 44 19 C44 23 46 26 46 29 C45 27 44 25 43 25 C43 29 46 32 47 35 C47 33 47 31 48 30 C48 33 49 35 50 36 C51 35 52 33 52 30 C53 31 53 33 53 35 C54 32 57 29 57 25 C56 25 55 27 54 29 C54 26 56 23 56 19 C55 20 54 22 53 25 C53 22 53 18 50 18Z" fill="url(#flameGrad)"/>

  <!-- U harfi -->
  <text
    x="50"
    y="80"
    font-family="Georgia, 'Times New Roman', serif"
    font-size="48"
    font-weight="bold"
    text-anchor="middle"
    fill="url(#goldText)"
  >U</text>

</svg>
